# AST/ASF file generated using VICON BodyLanguage
# -----------------------------------------------
:version 1.10
:name VICON
:units
  mass 1.0
  length 0.45
  angle deg
:documentation
   .ast/.asf automatically generated from VICON data using
   VICON BodyBuilder and BodyLanguage model FoxedUp or BRILLIANT.MOD
:root
   order TX TY TZ RX RY RZ
   axis XYZ
   position 0 0 0  
   orientation 0 0 0 
:bonedata
  begin
     id 1 
     name lhipjoint
     direction 0.78388 -0.462562 0.414208 
     length 3.01181 
     axis 0 0 0  XYZ
  end
  begin
     id 2 
     name lfemur
     direction 0.34202 -0.939693 0  
     length 6.04673  
     axis 0 0 20  XYZ
    dof rx ry rz
    limits (-160.0 20.0)
           (-70.0 70.0)
           (-60.0 70.0)
  end
  begin
     id 3 
     name ltibia
     direction 0.34202 -0.939693 0   
     length 7.211   
     axis 0 0 20   XYZ
    dof rx
    limits (-10.0 170.0)
  end
  begin
     id 4 
     name lfoot
     direction 0.121887 -0.334882 0.934344   
     length 2.13567   
     axis -90 7.62852e-016 20   XYZ
    dof rx rz
    limits (-45.0 90.0)
           (-70.0 20.0)
  end
  begin
     id 5 
     name ltoes
     direction 1.53555e-011 -4.2179e-011 1   
     length 1.05957   
     axis -90 7.62852e-016 20   XYZ
    dof rx
    limits (-90.0 20.0)
  end
  begin
     id 6 
     name rhipjoint
     direction -0.769387 -0.475875 0.426129   
     length 2.92756  
     axis 0 0 0  XYZ 
  end
  begin
     id 7 
     name rfemur
     direction -0.34202 -0.939693 0   
     length 6.35468   
     axis 0 0 -20   XYZ
    dof rx ry rz
    limits (-160.0 20.0)
           (-70.0 70.0)
           (-70.0 60.0)
  end
  begin
     id 8 
     name rtibia
     direction -0.34202 -0.939693 0   
     length 7.37886   
     axis 0 0 -20   XYZ
    dof rx
    limits (-10.0 170.0)
 end
 begin
     id 9 
     name rfoot
     direction -0.101763 -0.279592 0.954711   
     length 2.21478  
     axis -90 -7.62852e-016 -20   XYZ
    dof rx rz
    limits (-45.0 90.0)
           (-20.0 70.0)
  end
  begin
     id 10 
     name rtoes
     direction -1.53494e-011 -4.21851e-011 1   
     length 1.10506   
     axis -90 -7.62852e-016 -20   XYZ
    dof rx
    limits (-90.0 20.0)
  end
  begin
     id 11 
     name lowerback
     direction 0.00747405 0.999267 0.0375481   
     length 2.13259   
     axis 0 0 0   XYZ
    dof rx ry rz
    limits (-20.0 45.0)
           (-30.0 30.0)
           (-30.0 30.0)
  end
  begin
     id 12 
     name upperback
     direction 0.00661626 0.996177 0.0871029   
     length 2.10528   
     axis 0 0 0   XYZ
    dof rx ry rz
    limits (-20.0 45.0)
           (-30.0 30.0)
           (-30.0 30.0)
  end
  begin
     id 13 
     name thorax
     direction 0.00320659 0.997679 0.0680167   
     length 2.11338   
     axis 0 0 0   XYZ
    dof rx ry rz
    limits (-20.0 45.0)
           (-30.0 30.0)
           (-30.0 30.0)
  end
  begin
     id 14 
     name lowerneck
     direction 0.0374841 0.973033 0.227602   
     length 1.42765   
     axis 0 0 0   XYZ
    dof rx ry rz
    limits (-20.0 45.0)
           (-30.0 30.0)
           (-30.0 30.0)
  end
  begin
     id 15 
     name upperneck
     direction 0.00481585 0.989155 -0.146795   
     length 1.47593   
     axis 0 0 0   XYZ
    dof rx ry rz
    limits (-20.0 45.0)
           (-30.0 30.0)
           (-30.0 30.0)
  end
  begin
     id 16
     name head
     direction -0.00292522 0.997206 -0.0746423  
     length 1.48116  
     axis 0 0 0   XYZ
    dof rx ry rz
    limits (-20.0 45.0)
           (-30.0 30.0)
           (-30.0 30.0)
  end
  begin
     id 17 
     name lclavicle
     direction 0.951444 0.305606 0.0368784  
     length 3.01855  
     axis 0 0 0   XYZ
    dof ry rz
    limits (-20.0 10.0)
           (0.0 20.0)
  end
  begin
     id 18 
     name lhumerus
     direction 1 -4.48977e-011 2.61664e-027   
     length 5.52731   
     axis 180 -30 -90   XYZ
    dof rx ry rz
    limits (-60.0 90.0)
           (-90.0 90.0)
           (-90.0 90.0)
  end
  begin
     id 19
     name lradius
     direction 1 -4.48944e-011 8.22157e-027   
     length 3.11059   
     axis 180 -30 -90   XYZ
    dof rx
    limits (-10.0 170.0)
  end
  begin
     id 20
     name lwrist
     direction 1 -4.48976e-011 1.5779e-026   
     length 1.5553   
     axis -1.15221e-014 90 90   XYZ
    dof ry
    limits (-180.0 0.0)
 end
  begin
     id 21 
     name lhand
     direction 1 -4.49025e-011 3.1558e-026   
     length 0.419626   
     axis -2.01367e-014 90 90   XYZ
    dof rx rz
    limits (-90.0 90.0)
           (-45.0 45.0)
  end
  begin
     id 22 
     name lfingers
     direction 1 -4.4904e-011 6.31161e-026   
     length 0.338313   
     axis -4.02734e-014 90 90   XYZ
    dof rx
    limits (0.0 90.0)
  end
  begin
     id 23
     name lthumb
     direction 0.707107 -6.35004e-011 0.707107   
     length 0.485752   
     axis -90 45 2.85299e-015   XYZ
    dof rx rz
    limits (-45.0 45.0)
           (-45.0 45.0)
  end
  begin
     id 24 
     name rclavicle
     direction -0.968876 0.223791 0.105816   
     length 3.04177  
     axis 0 0 0   XYZ 
    dof ry rz
    limits (-10.0 20.0)
           (-20.0 0.0)
  end
  begin
     id 25 
     name rhumerus
     direction -1 -4.48962e-011 -1.01384e-027  
     length 5.25396   
     axis 180 30 90   XYZ
    dof rx ry rz
    limits (-90.0 60.0)
           (-90.0 90.0)
           (-90.0 90.0)
  end
  begin
     id 26 
     name rradius
     direction -1 -4.48955e-011 8.88542e-027   
     length 3.10567   
     axis 180 30 90   XYZ
    dof rx
    limits (-10.0 170.0)
  end
  begin
     id 27 
     name rwrist
     direction -1 -4.48994e-011 1.5779e-026   
     length 1.55283   
     axis -1.15221e-014 -90 -90   XYZ
    dof ry
    limits (-180.0 0.0)
  end
  begin
     id 28
     name rhand
     direction -1 -4.48891e-011 3.1558e-026   
     length 0.498676   
     axis -2.01367e-014 -90 -90   XYZ
    dof rx rz
    limits (-90.0 90.0)
           (-45.0 45.0)
  end
  begin
     id 29
     name rfingers
     direction -1 -4.48972e-011 6.31161e-026   
     length 0.402045   
     axis -4.02734e-014 -90 -90   XYZ
    dof rx
    limits (0.0 90.0)
  end
  begin
     id 30
     name rthumb
     direction -0.707107 -6.34849e-011 0.707107   
     length 0.577259   
     axis -90 -45 -2.85299e-015   XYZ
    dof rx rz
    limits (-45.0 45.0)
           (-45.0 45.0)
  end
:hierarchy
  begin
    root lhipjoint rhipjoint lowerback
    lhipjoint lfemur
    lfemur ltibia
    ltibia lfoot
    lfoot ltoes
    rhipjoint rfemur
    rfemur rtibia
    rtibia rfoot
    rfoot rtoes
    lowerback upperback
    upperback thorax
    thorax lowerneck lclavicle rclavicle
    lowerneck upperneck
    upperneck head
    lclavicle lhumerus
    lhumerus lradius
    lradius lwrist
    lwrist lhand lthumb
    lhand lfingers
    rclavicle rhumerus
    rhumerus rradius
    rradius rwrist
    rwrist rhand rthumb
    rhand rfingers
  end

#!OML:ASF H:\Pregnant\Project 1\Capture day 1\Session 1\femalepreg.ASF
:FULLY-SPECIFIED
:DEGREES
225
root -1.33105 15.4029 27.6765 -156.773 -63.1904 180.968
lowerback -15.5907 4.62443 5.26474
upperback -4.528 5.09278 -1.74739
thorax 4.5099 2.41357 -3.8284
lowerneck -19.8257 1.442 3.93129
upperneck 20.0776 0.847994 -0.715369
head 9.65896 0.571691 -0.787692
rclavicle -6.71644e-014 5.1684e-015
rhumerus 17.0945 -33.733 -47.8424
rradius 49.6662
rwrist -28.1414
rhand -32.0063 -30.5181
rfingers 7.12502
rthumb -5.25485 -60.433
lclavicle -6.71644e-014 5.1684e-015
lhumerus -62.1921 -11.4523 84.4665
lradius 98.9261
lwrist 35.5512
lhand -21.8594 -18.7864
lfingers 7.12502
lthumb 4.54453 11.1449
rfemur -49.5246 3.06636 14.6967
rtibia 42.1514
rfoot -10.8342 -22.5122
rtoes -10.0048
lfemur -34.5152 -24.168 2.01883
ltibia 18.0266
lfoot -12.4796 -11.1481
ltoes -5.39228
226
root -1.34235 15.4011 27.6982 -156.733 -62.7146 180.82
lowerback -15.5995 4.61523 5.2309
upperback -4.55452 5.08521 -1.80315
thorax 4.48803 2.4072 -3.87068
lowerneck -19.9621 1.84446 4.35326
upperneck 20.2504 1.32627 -0.960921
head 9.7629 0.798196 -0.875633
rclavicle -1.16538e-014 6.95746e-015
rhumerus 15.3744 -31.9759 -48.1638
rradius 50.7015
rwrist -28.1451
rhand -32.0731 -29.9365
rfingers 7.12502
rthumb -5.31931 -59.8498
lclavicle -1.16538e-014 6.95746e-015
lhumerus -61.7602 -11.3551 84.2697
lradius 97.7128
lwrist 34.9915
lhand -21.7432 -18.7665
lfingers 7.12502
lthumb 4.65669 11.1623
rfemur -49.537 3.3664 14.4091
rtibia 42.1385
rfoot -10.7315 -22.4726
rtoes -10.0785
lfemur -34.2498 -24.0226 1.65799
ltibia 18.0789
lfoot -12.5428 -11.1415
ltoes -5.64429
227
root -1.35409 15.3993 27.7206 -156.718 -62.2582 180.684
lowerback -15.5914 4.61311 5.20505
upperback -4.5788 5.08761 -1.86604
thorax 4.46181 2.40604 -3.92381
lowerneck -20.0986 2.21225 4.71882
upperneck 20.4088 1.76184 -1.15671
head 9.86319 1.00597 -0.941964
rclavicle -2.5022e-014 -2.50469e-014
rhumerus 13.571 -30.1595 -48.4717
rradius 51.6547
rwrist -27.9662
rhand -32.1191 -29.342
rfingers 7.12502
rthumb -5.36375 -59.2542
lclavicle -2.5022e-014 -2.50469e-014
lhumerus -61.2906 -11.3064 84.074
lradius 96.4407
lwrist 34.4036
lhand -21.6906 -18.7438
lfingers 7.12502
lthumb 4.70748 11.1839
rfemur -49.5224 3.64771 14.1308
rtibia 42.108
rfoot -10.6266 -22.4296
rtoes -10.1593
lfemur -33.9766 -23.8771 1.29279
ltibia 18.126
lfoot -12.5976 -11.1508
ltoes -5.84669
228
root -1.36661 15.3978 27.7435 -156.752 -61.8093 180.587
lowerback -15.5731 4.64317 5.20459
upperback -4.60119 5.13011 -1.93807
thorax 4.43957 2.42515 -3.99291
lowerneck -20.2213 2.52013 4.98569
upperneck 20.5416 2.12816 -1.27997
head 9.95017 1.18217 -0.975703
rclavicle -3.93594e-014 -1.55052e-014
rhumerus 11.6595 -28.3092 -48.7296
rradius 52.5209
rwrist -27.6114
rhand -32.125 -28.7731
rfingers 7.12502
rthumb -5.36943 -58.6851
lclavicle -3.93594e-014 -1.55052e-014
lhumerus -60.7806 -11.3439 83.904
lradius 95.1045
lwrist 33.7991
lhand -21.6591 -18.728
lfingers 7.12502
lthumb 4.73792 11.199
rfemur -49.4789 3.92151 13.8746
rtibia 42.0553
rfoot -10.5167 -22.3759
rtoes -10.26
lfemur -33.687 -23.7154 0.926834
ltibia 18.1771
lfoot -12.6573 -11.1721
ltoes -5.98382
229
root -1.37962 15.3966 27.7677 -156.832 -61.3716 180.531
lowerback -15.5459 4.71151 5.23398
upperback -4.62178 5.22013 -2.01979
thorax 4.4233 2.46828 -4.07945
lowerneck -20.3232 2.76272 5.15686
upperneck 20.6384 2.4193 -1.33796
head 10.0171 1.32357 -0.981063
rclavicle -5.72997e-014 1.78906e-014
rhumerus 9.64677 -26.4442 -48.9478
rradius 53.2964
rwrist -27.1017
rhand -32.0993 -28.2401
rfingers 7.12502
rthumb -5.34465 -58.1527
lclavicle -5.72997e-014 1.78906e-014
lhumerus -60.2293 -11.4823 83.7771
lradius 93.7076
lwrist 33.2089
lhand -21.6725 -18.6957
lfingers 7.12502
lthumb 4.72503 11.2316
rfemur -49.4104 4.17367 13.6474
rtibia 41.9799
rfoot -10.4035 -22.2997
rtoes -10.3865
lfemur -33.3925 -23.5359 0.562654
ltibia 18.2433
lfoot -12.7225 -11.2013
ltoes -6.05371
230
root -1.39292 15.3957 27.7932 -156.951 -60.9434 180.514
lowerback -15.5089 4.81727 5.3005
upperback -4.64754 5.35659 -2.1366
thorax 4.40853 2.53459 -4.21503
lowerneck -20.4011 2.95611 5.32658
upperneck 20.7011 2.63428 -1.35773
head 10.0651 1.43412 -0.983556
rclavicle 2.24875e-014 -4.05521e-014
rhumerus 7.53682 -24.6067 -49.2137
rradius 53.9751
rwrist -26.4227
rhand -32.006 -27.7601
rfingers 7.12502
rthumb -5.25455 -57.675
lclavicle 2.24875e-014 -4.05521e-014
lhumerus -59.6457 -11.7498 83.6443
lradius 92.264
lwrist 32.6817
lhand -21.7351 -18.6359
lfingers 7.12502
lthumb 4.66461 11.2927
rfemur -49.3237 4.40981 13.4455
rtibia 41.8829
rfoot -10.2789 -22.2083
rtoes -10.558
lfemur -33.1035 -23.3345 0.199177
ltibia 18.3355
lfoot -12.8018 -11.23
ltoes -6.07061
231
root -1.40658 15.3951 27.8203 -157.101 -60.5217 180.534
lowerback -15.4786 4.92595 5.37247
upperback -4.67117 5.49476 -2.23649
thorax 4.39944 2.60186 -4.33487
lowerneck -20.4582 3.12669 5.45119
upperneck 20.7323 2.83069 -1.36613
head 10.0966 1.53381 -0.977255
rclavicle 2.38666e-014 -2.6339e-014
rhumerus 5.44644 -22.7339 -49.5528
rradius 54.5305
rwrist -25.5979
rhand -31.8112 -27.3147
rfingers 7.12502
rthumb -5.0664 -57.2341
lclavicle 2.38666e-014 -2.6339e-014
lhumerus -59.045 -12.0161 83.5385
lradius 90.7806
lwrist 32.2376
lhand -21.8425 -18.5401
lfingers 7.12502
lthumb 4.56088 11.3908
rfemur -49.2285 4.62897 13.2675
rtibia 41.7688
rfoot -10.1471 -22.0964
rtoes -10.7744
lfemur -32.8288 -23.1118 -0.160837
ltibia 18.4598
lfoot -12.8962 -11.2537
ltoes -6.02049
